<?xml version="1.0" encoding="UTF-8" standalone="no"?>
<svg
   xmlns:dc="http://purl.org/dc/elements/1.1/"
   xmlns:cc="http://creativecommons.org/ns#"
   xmlns:rdf="http://www.w3.org/1999/02/22-rdf-syntax-ns#"
   xmlns:svg="http://www.w3.org/2000/svg"
   xmlns="http://www.w3.org/2000/svg"
   viewBox="0 0 2728 1053"
   height="1053"
   width="2728"
   id="svg2"
   version="1.1">
  <metadata
     id="metadata8">
    <rdf:RDF>
      <cc:Work
         rdf:about="">
        <dc:format>image/svg+xml</dc:format>
        <dc:type
           rdf:resource="http://purl.org/dc/dcmitype/StillImage" />
        <dc:title></dc:title>
      </cc:Work>
    </rdf:RDF>
  </metadata>
  <defs
     id="defs6" />
  <g
     id="g10">
    <path
       id="path24"
       d="m 952.07224,746.26803 1.10633,-272.30141 135.92543,135.67242 -0.5973,272.00988 C 1040.4459,834.95118 992.82857,786.64599 952.07224,746.26803 Z"
       style="fill:#ede9e6;stroke:#ede9e6;stroke-width:1px;stroke-linecap:butt;stroke-linejoin:miter;stroke-opacity:1;fill-opacity:1" />
    <path
       style="fill:#ede9e6;stroke:#ede9e6;stroke-width:1px;stroke-linecap:butt;stroke-linejoin:miter;stroke-opacity:1;fill-opacity:1"
       d="m 1361.7348,609.66506 0.5399,-272.61117 136.4918,135.98218 -0.1104,271.79741 c -47.7847,-45.95053 -96.2467,-94.86319 -136.9213,-135.16842 z"
       id="path851" />
    <path
       id="path853"
       d="m 1225.5217,745.177 272.4185,1.31458 -135.7894,135.71712 -272.0183,0.11038 c 41.2799,-45.15072 95.785,-97.21806 135.3892,-137.14208 z"
       style="fill:#ede9e6;stroke:#ede9e6;stroke-width:1px;stroke-linecap:butt;stroke-linejoin:miter;stroke-opacity:1;fill-opacity:1" />
    <path
       id="path855"
       d="m 1225.9225,472.86029 -0.4008,272.31671 v 0"
       style="fill:none;stroke:#000000;stroke-width:0.1;stroke-linecap:butt;stroke-linejoin:miter;stroke-miterlimit:4;stroke-dasharray:none;stroke-opacity:1" />
    <path
       id="path925"
       d="m 1374.383,745.24074 c -51.4276,-0.28214 -106.156,-0.39522 -121.3484,-0.46867 l -27.4016,-0.13249 0.1269,-135.86178 -3.7591,-135.86617 39.9313,-38.78346 c 21.1395,-20.53183 51.5632,-53.02801 68.6165,-68.93781 l 27.2416,-27.99585 3.9842,-1.13614 -0.1841,137.20478 -0.5513,136.7126 47.178,46.81917 c 25.9478,25.75055 54.7674,54.22251 64.0434,63.27102 9.276,9.04852 19.0214,18.5583 21.6564,21.13287 l 5.2245,4.79821 -15.8221,-0.0809 c -8.4758,-0.0433 -57.5098,-0.39334 -108.9375,-0.67548 z"
       style="fill:#a9b9c4;fill-opacity:1;fill-rule:evenodd;stroke:none;stroke-width:0;stroke-linejoin:bevel;stroke-miterlimit:4;stroke-dasharray:none;paint-order:stroke fill markers" />
    <path
       id="path929"
       d="m 1089.1381,823.35765 c 0.055,-32.41451 0.2623,-93.85138 0.3054,-136.56738 l 0.1887,-77.34506 -68.4069,-68.26425 -68.44978,-68.32566 136.66298,0.0143 136.4377,0.0916 -0.1983,135.7873 -0.045,135.8911 -46.7714,46.21712 c -47.974,47.40547 -58.7215,59.09133 -75.4034,76.40381 -4.6891,5.17598 -9.5644,10.27098 -14.4208,15.46889 z"
       style="fill:#144d67;fill-opacity:1;fill-rule:evenodd;stroke:none;stroke-width:0;stroke-linejoin:bevel;stroke-miterlimit:4;stroke-dasharray:none;paint-order:stroke fill markers" />
    <path
       id="path1119"
       d="m 1088.3468,1155.5155 1.1064,-272.30138 135.9254,135.67238 -0.5973,272.0099 c -48.0608,-46.6977 -95.6781,-95.0029 -136.4345,-135.3809 z"
       style="fill:#ede9e6;stroke:#ede9e6;stroke-width:1px;stroke-linecap:butt;stroke-linejoin:miter;stroke-opacity:1;fill-opacity:1" />
    <path
       style="fill:#ede9e6;stroke:#ede9e6;stroke-width:1px;stroke-linecap:butt;stroke-linejoin:miter;stroke-opacity:1;fill-opacity:1"
       d="m 1498.0094,1018.9126 0.5399,-272.61121 136.4918,135.98218 -0.1104,271.79743 c -47.7847,-45.9506 -96.2467,-94.8632 -136.9213,-135.1684 z"
       id="path1123" />
    <path
       style="fill:#ede9e6;stroke:#ede9e6;stroke-width:1px;stroke-linecap:butt;stroke-linejoin:miter;stroke-opacity:1;fill-opacity:1"
       d="m 1771.3973,473.06209 0.5399,-272.61117 136.4918,135.98218 -0.1104,271.79741 c -47.7847,-45.95053 -96.2467,-94.86319 -136.9213,-135.16842 z"
       id="path1163" />
    <path
       id="path1165"
       d="m 1635.1842,608.57403 272.4185,1.31458 -135.7894,135.71712 -272.0183,0.11038 c 41.2799,-45.15072 95.785,-97.21806 135.3892,-137.14208 z"
       style="fill:#ede9e6;stroke:#ede9e6;stroke-width:1px;stroke-linecap:butt;stroke-linejoin:miter;stroke-opacity:1;fill-opacity:1" />
    <path
       id="path1167"
       d="m 1635.585,336.25732 -0.4008,272.31671 v 0"
       style="fill:none;stroke:#000000;stroke-width:0.1;stroke-linecap:butt;stroke-linejoin:miter;stroke-miterlimit:4;stroke-dasharray:none;stroke-opacity:1" />
    <path
       id="path1169"
       d="m 1784.0455,608.63777 c -51.4276,-0.28214 -106.156,-0.39522 -121.3484,-0.46867 l -27.4016,-0.13249 0.1269,-135.86178 0.1613,-135.91751 37.7787,-38.02501 c 20.7701,-20.90545 51.2966,-51.68397 67.7326,-68.23071 l 30.3419,-30.5462 -0.1841,137.20478 -0.5513,136.7126 47.178,46.81917 c 25.9478,25.75055 54.7674,54.22251 64.0434,63.27102 9.276,9.04852 19.0214,18.5583 21.6564,21.13287 l 5.2245,4.79821 -15.8221,-0.0809 c -8.4758,-0.0433 -57.5098,-0.39334 -108.9375,-0.67548 z"
       style="fill:#a9b9c4;fill-opacity:1;fill-rule:evenodd;stroke:none;stroke-width:0;stroke-linejoin:bevel;stroke-miterlimit:4;stroke-dasharray:none;paint-order:stroke fill markers" />
    <path
       id="path1171"
       d="m 1498.8006,686.75468 c 0.055,-32.41451 0.2623,-93.85138 0.3054,-136.56738 l 0.1887,-77.34506 -68.4069,-68.26425 -68.4498,-68.32566 136.663,0.0143 136.4377,0.0916 -0.1983,135.7873 -0.045,135.8911 -46.7714,46.21712 c -47.974,47.40547 -58.7215,59.09133 -75.4034,76.40381 -4.6891,5.17598 -9.5644,10.27098 -14.4208,15.46889 z"
       style="fill:#144d67;fill-opacity:1;fill-rule:evenodd;stroke:none;stroke-width:0;stroke-linejoin:bevel;stroke-miterlimit:4;stroke-dasharray:none;paint-order:stroke fill markers" />
    <path
       style="fill:none;stroke:#000000;stroke-width:0.1;stroke-linecap:butt;stroke-linejoin:miter;stroke-miterlimit:4;stroke-dasharray:none;stroke-opacity:1"
       d="m 1635.585,336.25732 -0.4008,272.31671 v 0"
       id="path1173" />
    <path
       style="fill:#ede9e6;stroke:#ede9e6;stroke-width:1px;stroke-linecap:butt;stroke-linejoin:miter;stroke-opacity:1;fill-opacity:1"
       d="m 1907.6719,882.30959 0.5399,-272.61117 136.4918,135.98218 -0.1104,271.7974 c -47.7847,-45.95052 -96.2467,-94.86318 -136.9213,-135.16841 z"
       id="path1183" />
    <path
       id="path1187"
       d="m 1771.8596,745.50482 -0.4008,272.31668 v 0"
       style="fill:none;stroke:#000000;stroke-width:0.1;stroke-linecap:butt;stroke-linejoin:miter;stroke-miterlimit:4;stroke-dasharray:none;stroke-opacity:1" />
    <path
       id="path1189"
       d="m 1920.3201,1017.8853 c -51.4276,-0.2822 -106.156,-0.3953 -121.3484,-0.4687 l -27.4016,-0.1325 0.1269,-135.86177 0.1613,-135.91751 37.7787,-38.02501 c 20.7701,-20.90545 51.2966,-51.68397 67.7326,-68.23071 l 30.3419,-30.5462 -0.1841,137.20478 -0.5513,136.7126 47.178,46.81917 c 25.9478,25.75055 54.7674,54.22251 64.0434,63.27102 9.276,9.04853 19.0214,18.55833 21.6564,21.13283 l 5.2245,4.7982 -15.8221,-0.081 c -8.4758,-0.043 -57.5098,-0.3933 -108.9375,-0.6754 z"
       style="fill:#144d67;fill-opacity:1;fill-rule:evenodd;stroke:none;stroke-width:0;stroke-linejoin:bevel;stroke-miterlimit:4;stroke-dasharray:none;paint-order:stroke fill markers" />
    <path
       id="path1191"
       d="m 1635.0752,1096.0022 c 0.055,-32.4145 0.2623,-93.8514 0.3054,-136.5674 l 0.1887,-77.34506 -68.4069,-68.26425 -68.4498,-68.32566 136.663,0.0143 136.4377,0.0916 -0.1983,135.7873 -0.045,135.89107 -46.7714,46.2171 c -47.974,47.4055 -58.7215,59.0914 -75.4034,76.4039 -4.6891,5.1759 -9.5644,10.2709 -14.4208,15.4689 z"
       style="fill:#a9b9c4;fill-opacity:1;fill-rule:evenodd;stroke:none;stroke-width:0;stroke-linejoin:bevel;stroke-miterlimit:4;stroke-dasharray:none;paint-order:stroke fill markers" />
    <path
       style="fill:none;stroke:#000000;stroke-width:0.1;stroke-linecap:butt;stroke-linejoin:miter;stroke-miterlimit:4;stroke-dasharray:none;stroke-opacity:1"
       d="m 1771.8596,745.50482 -0.4008,272.31668 v 0"
       id="path1193" />
    <path
       style="fill:#a9b9c4;fill-opacity:1;fill-rule:evenodd;stroke:none;stroke-width:0;stroke-linejoin:bevel;stroke-miterlimit:4;stroke-dasharray:none;paint-order:stroke fill markers"
       d="m 1225.3015,1233.1426 c 0.055,-32.4146 0.2623,-93.8514 0.3054,-136.5674 l 0.1887,-77.3451 -68.4069,-68.26424 -68.4498,-68.32566 136.663,0.0143 136.4377,0.0916 -0.1983,135.7873 -0.045,135.8911 -46.7714,46.2171 c -47.974,47.4055 -58.7215,59.0914 -75.4034,76.4038 -4.6891,5.176 -9.5644,10.271 -14.4208,15.4689 z"
       id="path1199" />
    <path
       style="fill:#144d67;fill-opacity:1;fill-rule:evenodd;stroke:none;stroke-width:0;stroke-linejoin:bevel;stroke-miterlimit:4;stroke-dasharray:none;paint-order:stroke fill markers"
       d="m 1511.3534,1154.1776 c -51.4276,-0.2821 -106.156,-0.3952 -121.3484,-0.4687 l -27.4016,-0.1325 0.1269,-135.8618 0.1613,-135.91746 37.7787,-38.02501 c 20.7701,-20.90545 51.2966,-51.68397 67.7326,-68.23071 l 30.3419,-30.5462 -0.1841,137.20478 -0.5513,136.7126 47.178,46.8192 c 25.9478,25.7505 54.7674,54.2225 64.0434,63.271 9.276,9.0485 19.0214,18.5583 21.6564,21.1329 l 5.2245,4.7982 -15.8221,-0.081 c -8.4758,-0.043 -57.5098,-0.3934 -108.9375,-0.6755 z"
       id="path1201" />
    <path
       style="fill:#ede9e6;stroke:#ede9e6;stroke-width:1px;stroke-linecap:butt;stroke-linejoin:miter;stroke-opacity:1;fill-opacity:1"
       d="m 2181.0598,336.45912 0.5399,-272.611171 136.4918,135.982181 -0.1104,271.79741 c -47.7847,-45.95053 -96.2467,-94.86319 -136.9213,-135.16842 z"
       id="path1207" />
    <path
       id="path1209"
       d="m 2044.8467,471.97106 272.4185,1.31458 -135.7894,135.71712 -272.0183,0.11038 c 41.2799,-45.15072 95.785,-97.21806 135.3892,-137.14208 z"
       style="fill:#ede9e6;stroke:#ede9e6;stroke-width:1px;stroke-linecap:butt;stroke-linejoin:miter;stroke-opacity:1;fill-opacity:1" />
    <path
       id="path1211"
       d="m 2045.2475,199.65435 -0.4008,272.31671 v 0"
       style="fill:none;stroke:#000000;stroke-width:0.1;stroke-linecap:butt;stroke-linejoin:miter;stroke-miterlimit:4;stroke-dasharray:none;stroke-opacity:1" />
    <path
       id="path1213"
       d="m 2193.708,472.0348 c -51.4276,-0.28214 -106.156,-0.39522 -121.3484,-0.46867 l -27.4016,-0.13249 0.1269,-135.86178 0.1613,-135.91751 37.7787,-38.02501 c 20.7701,-20.90545 51.2966,-51.68397 67.7326,-68.23071 l 30.3419,-30.546201 -0.1841,137.204781 -0.5513,136.7126 47.178,46.81917 c 25.9478,25.75055 54.7674,54.22251 64.0434,63.27102 9.276,9.04852 19.0214,18.5583 21.6564,21.13287 l 5.2245,4.79821 -15.8221,-0.0809 c -8.4758,-0.0433 -57.5098,-0.39334 -108.9375,-0.67548 z"
       style="fill:#a9b9c4;fill-opacity:1;fill-rule:evenodd;stroke:none;stroke-width:0;stroke-linejoin:bevel;stroke-miterlimit:4;stroke-dasharray:none;paint-order:stroke fill markers" />
    <path
       id="path1215"
       d="m 1908.4631,550.15171 c 0.055,-32.41451 0.2623,-93.85138 0.3054,-136.56738 l 0.1887,-77.34506 -68.4069,-68.26425 -68.4498,-68.32566 136.663,0.0143 136.4377,0.0916 -0.1983,135.7873 -0.045,135.8911 -46.7714,46.21712 c -47.974,47.40547 -58.7215,59.09133 -75.4034,76.40381 -4.6891,5.17598 -9.5644,10.27098 -14.4208,15.46889 z"
       style="fill:#144d67;fill-opacity:1;fill-rule:evenodd;stroke:none;stroke-width:0;stroke-linejoin:bevel;stroke-miterlimit:4;stroke-dasharray:none;paint-order:stroke fill markers" />
    <path
       style="fill:none;stroke:#000000;stroke-width:0.1;stroke-linecap:butt;stroke-linejoin:miter;stroke-miterlimit:4;stroke-dasharray:none;stroke-opacity:1"
       d="m 2045.2475,199.65435 -0.4008,272.31671 v 0"
       id="path1217" />
    <path
       id="path1265"
       d="m 2317.3344,745.70662 0.5399,-272.61117 136.4918,135.98218 -0.1104,271.79741 C 2406.471,834.92451 2358.009,786.01185 2317.3344,745.70662 Z"
       style="fill:#ede9e6;stroke:#ede9e6;stroke-width:1px;stroke-linecap:butt;stroke-linejoin:miter;stroke-opacity:1;fill-opacity:1" />
    <path
       style="fill:none;stroke:#000000;stroke-width:0.1;stroke-linecap:butt;stroke-linejoin:miter;stroke-miterlimit:4;stroke-dasharray:none;stroke-opacity:1"
       d="m 2181.5221,608.90185 -0.4008,272.31671 v 0"
       id="path1269" />
    <path
       style="fill:#144d67;fill-opacity:1;fill-rule:evenodd;stroke:none;stroke-width:0;stroke-linejoin:bevel;stroke-miterlimit:4;stroke-dasharray:none;paint-order:stroke fill markers"
       d="m 2329.9826,881.2823 c -51.4276,-0.28214 -106.156,-0.39522 -121.3484,-0.46867 l -27.4016,-0.13249 0.1269,-135.86178 0.1613,-135.91751 37.7787,-38.02501 c 20.7701,-20.90545 51.2966,-51.68397 67.7326,-68.23071 l 30.3419,-30.5462 -0.1841,137.20478 -0.5513,136.7126 47.178,46.81917 c 25.9478,25.75055 54.7674,54.22251 64.0434,63.27102 9.276,9.04852 19.0214,18.5583 21.6564,21.13287 l 5.2245,4.79821 -15.8221,-0.0809 c -8.4758,-0.0433 -57.5098,-0.39334 -108.9375,-0.67548 z"
       id="path1271" />
    <path
       style="fill:#a9b9c4;fill-opacity:1;fill-rule:evenodd;stroke:none;stroke-width:0;stroke-linejoin:bevel;stroke-miterlimit:4;stroke-dasharray:none;paint-order:stroke fill markers"
       d="m 2044.7377,959.39921 c 0.055,-32.41451 0.2623,-93.85138 0.3054,-136.56738 l 0.1887,-77.34506 -68.4069,-68.26425 -68.4498,-68.32566 136.663,0.0143 136.4377,0.0916 -0.1983,135.7873 -0.045,135.8911 -46.7714,46.21712 c -47.974,47.40547 -58.7215,59.09133 -75.4034,76.40382 -4.6891,5.176 -9.5644,10.271 -14.4208,15.4689 z"
       id="path1273" />
    <path
       id="path1275"
       d="m 2181.5221,608.90185 -0.4008,272.31671 v 0"
       style="fill:none;stroke:#000000;stroke-width:0.1;stroke-linecap:butt;stroke-linejoin:miter;stroke-miterlimit:4;stroke-dasharray:none;stroke-opacity:1" />
    <path
       id="path1277"
       d="m 542.40964,882.871 1.1064,-272.30141 135.9254,135.67242 -0.5973,272.00989 c -48.0608,-46.69775 -95.6781,-95.00294 -136.4345,-135.3809 z"
       style="fill:#ede9e6;stroke:#ede9e6;stroke-width:1px;stroke-linecap:butt;stroke-linejoin:miter;stroke-opacity:1;fill-opacity:1" />
    <path
       id="path1283"
       d="m 815.85914,881.77997 272.41846,1.31458 -135.78936,135.71715 -272.0183,0.1103 c 41.2799,-45.15067 95.785,-97.21801 135.3892,-137.14203 z"
       style="fill:#ede9e6;stroke:#ede9e6;stroke-width:1px;stroke-linecap:butt;stroke-linejoin:miter;stroke-opacity:1;fill-opacity:1" />
    <path
       id="path1285"
       d="m 816.25994,609.46326 -0.4008,272.31671 v 0"
       style="fill:none;stroke:#000000;stroke-width:0.1;stroke-linecap:butt;stroke-linejoin:miter;stroke-miterlimit:4;stroke-dasharray:none;stroke-opacity:1" />
    <path
       id="path1287"
       d="m 964.72044,881.84371 c -51.4276,-0.28214 -106.156,-0.39522 -121.3484,-0.46867 l -27.4016,-0.13249 0.1269,-135.86178 0.1613,-135.91751 37.7787,-38.02501 c 20.7701,-20.90545 51.2966,-51.68397 67.7326,-68.23071 l 30.3419,-30.5462 -0.1841,137.20478 -0.5513,136.7126 47.178,46.81917 c 25.94776,25.75055 54.76736,54.22251 64.04336,63.27102 9.276,9.04852 19.0214,18.5583 21.6564,21.13287 l 5.2245,4.79821 -15.8221,-0.0809 c -8.4758,-0.0433 -57.5098,-0.39334 -108.93746,-0.67548 z"
       style="fill:#a9b9c4;fill-opacity:1;fill-rule:evenodd;stroke:none;stroke-width:0;stroke-linejoin:bevel;stroke-miterlimit:4;stroke-dasharray:none;paint-order:stroke fill markers" />
    <path
       id="path1289"
       d="m 679.47554,959.96062 c 0.055,-32.41451 0.2623,-93.85138 0.3054,-136.56738 l 0.1887,-77.34506 -68.4069,-68.26425 -68.4498,-68.32566 136.663,0.0143 136.4377,0.0916 -0.1983,135.7873 -0.045,135.8911 -46.7714,46.21712 c -47.974,47.40547 -58.7215,59.09133 -75.4034,76.40381 -4.6891,5.176 -9.5644,10.271 -14.4208,15.4689 z"
       style="fill:#144d67;fill-opacity:1;fill-rule:evenodd;stroke:none;stroke-width:0;stroke-linejoin:bevel;stroke-miterlimit:4;stroke-dasharray:none;paint-order:stroke fill markers" />
    <path
       style="fill:none;stroke:#000000;stroke-width:0.1;stroke-linecap:butt;stroke-linejoin:miter;stroke-miterlimit:4;stroke-dasharray:none;stroke-opacity:1"
       d="m 816.25994,609.46326 -0.4008,272.31671 v 0"
       id="path1291" />
    <path
       style="fill:#ede9e6;stroke:#ede9e6;stroke-width:1px;stroke-linecap:butt;stroke-linejoin:miter;stroke-opacity:1;fill-opacity:1"
       d="m 678.90764,1292.6165 1.1064,-272.3014 135.9254,135.6725 -0.5973,272.0098 c -48.0608,-46.6977 -95.6781,-95.0029 -136.4345,-135.3809 z"
       id="path1293" />
    <path
       style="fill:none;stroke:#000000;stroke-width:0.1;stroke-linecap:butt;stroke-linejoin:miter;stroke-miterlimit:4;stroke-dasharray:none;stroke-opacity:1"
       d="m 952.75794,1019.2088 -0.4008,272.3167 v 0"
       id="path1301" />
    <path
       style="fill:#144d67;fill-opacity:1;fill-rule:evenodd;stroke:none;stroke-width:0;stroke-linejoin:bevel;stroke-miterlimit:4;stroke-dasharray:none;paint-order:stroke fill markers"
       d="m 1101.2184,1291.5893 c -51.4276,-0.2822 -106.15596,-0.3953 -121.34836,-0.4687 l -27.4016,-0.1325 0.1269,-135.8618 0.1613,-135.9175 37.7787,-38.025 c 20.77006,-20.90545 51.29656,-51.68397 67.73256,-68.23071 l 30.3419,-30.5462 -0.1841,137.20481 -0.5513,136.7126 47.178,46.8191 c 25.9478,25.7506 54.7674,54.2225 64.0434,63.2711 9.276,9.0485 19.0214,18.5583 21.6564,21.1328 l 5.2245,4.7982 -15.8221,-0.081 c -8.4758,-0.043 -57.5098,-0.3933 -108.9375,-0.6754 z"
       id="path1303" />
    <path
       style="fill:#a9b9c4;fill-opacity:1;fill-rule:evenodd;stroke:none;stroke-width:0;stroke-linejoin:bevel;stroke-miterlimit:4;stroke-dasharray:none;paint-order:stroke fill markers"
       d="m 815.97354,1369.7062 c 0.055,-32.4145 0.2623,-93.8514 0.3054,-136.5674 l 0.1887,-77.3451 -68.4069,-68.2642 -68.4498,-68.3257 136.663,0.014 136.4377,0.092 -0.1983,135.7873 -0.045,135.8911 -46.7714,46.2171 c -47.974,47.4055 -58.7215,59.0914 -75.4034,76.4038 -4.6891,5.176 -9.5644,10.271 -14.4208,15.4689 z"
       id="path1305" />
    <path
       id="path1307"
       d="m 952.75794,1019.2088 -0.4008,272.3167 v 0"
       style="fill:none;stroke:#000000;stroke-width:0.1;stroke-linecap:butt;stroke-linejoin:miter;stroke-miterlimit:4;stroke-dasharray:none;stroke-opacity:1" />
    <path
       style="fill:none;stroke:#000000;stroke-width:0.1;stroke-linecap:butt;stroke-linejoin:miter;stroke-miterlimit:4;stroke-dasharray:none;stroke-opacity:1"
       d="m 543.79114,1155.501 -0.4008,272.3168 v 0"
       id="path1317" />
    <path
       style="fill:#144d67;fill-opacity:1;fill-rule:evenodd;stroke:none;stroke-width:0;stroke-linejoin:bevel;stroke-miterlimit:4;stroke-dasharray:none;paint-order:stroke fill markers"
       d="m 692.25164,1427.8815 c -51.4276,-0.2821 -106.156,-0.3952 -121.3484,-0.4687 l -27.4016,-0.1325 0.1269,-135.8617 0.1613,-135.9176 37.7787,-38.025 c 20.7701,-20.9054 51.2966,-51.6839 67.7326,-68.2307 l 30.3419,-30.5462 -0.1841,137.2048 -0.5513,136.7126 47.178,46.8192 c 25.9478,25.7505 54.7674,54.2225 64.0434,63.271 9.276,9.0485 19.0214,18.5583 21.6564,21.1329 l 5.2245,4.7982 -15.8221,-0.081 c -8.4758,-0.043 -57.5098,-0.3934 -108.9375,-0.6755 z"
       id="path1319" />
    <path
       id="path1323"
       d="m 543.79114,1155.501 -0.4008,272.3168 v 0"
       style="fill:none;stroke:#000000;stroke-width:0.1;stroke-linecap:butt;stroke-linejoin:miter;stroke-miterlimit:4;stroke-dasharray:none;stroke-opacity:1" />
    <path
       id="path1325"
       d="m 133.33154,1019.7006 1.1064,-272.30136 135.9254,135.67242 -0.5973,272.00984 c -48.0608,-46.6977 -95.6781,-95.0029 -136.4345,-135.3809 z"
       style="fill:#ede9e6;stroke:#ede9e6;stroke-width:1px;stroke-linecap:butt;stroke-linejoin:miter;stroke-opacity:1;fill-opacity:1" />
    <path
       id="path1331"
       d="m 406.78104,1018.6096 272.4185,1.3146 -135.7894,135.7171 -272.0183,0.1104 c 41.2799,-45.1507 95.785,-97.2181 135.3892,-137.1421 z"
       style="fill:#ede9e6;stroke:#ede9e6;stroke-width:1px;stroke-linecap:butt;stroke-linejoin:miter;stroke-opacity:1;fill-opacity:1" />
    <path
       id="path1333"
       d="m 407.18184,746.29291 -0.4008,272.31669 v 0"
       style="fill:none;stroke:#000000;stroke-width:0.1;stroke-linecap:butt;stroke-linejoin:miter;stroke-miterlimit:4;stroke-dasharray:none;stroke-opacity:1" />
    <path
       id="path1335"
       d="m 555.64234,1018.6734 c -51.4276,-0.2822 -106.156,-0.3953 -121.3484,-0.4687 l -27.4016,-0.1325 0.1269,-135.86178 0.1613,-135.91751 37.7787,-38.02501 c 20.7701,-20.90545 51.2966,-51.68397 67.7326,-68.23071 l 30.3419,-30.5462 -0.1841,137.20478 -0.5513,136.7126 47.178,46.81917 c 25.9478,25.75055 54.7674,54.22251 64.0434,63.27102 9.276,9.04854 19.0214,18.55834 21.6564,21.13284 l 5.2245,4.7982 -15.8221,-0.081 c -8.4758,-0.043 -57.5098,-0.3933 -108.9375,-0.6754 z"
       style="fill:#a9b9c4;fill-opacity:1;fill-rule:evenodd;stroke:none;stroke-width:0;stroke-linejoin:bevel;stroke-miterlimit:4;stroke-dasharray:none;paint-order:stroke fill markers" />
    <path
       id="path1337"
       d="m 270.39744,1096.7903 c 0.055,-32.4145 0.2623,-93.8514 0.3054,-136.56741 l 0.1887,-77.34506 -68.4069,-68.26425 -68.4498,-68.32566 136.663,0.0143 136.4377,0.0916 -0.1983,135.7873 -0.045,135.89108 -46.7714,46.2171 c -47.974,47.4055 -58.7215,59.0914 -75.4034,76.4039 -4.6891,5.1759 -9.5644,10.2709 -14.4208,15.4688 z"
       style="fill:#144d67;fill-opacity:1;fill-rule:evenodd;stroke:none;stroke-width:0;stroke-linejoin:bevel;stroke-miterlimit:4;stroke-dasharray:none;paint-order:stroke fill markers" />
    <path
       style="fill:none;stroke:#000000;stroke-width:0.1;stroke-linecap:butt;stroke-linejoin:miter;stroke-miterlimit:4;stroke-dasharray:none;stroke-opacity:1"
       d="m 407.18184,746.29291 -0.4008,272.31669 v 0"
       id="path1339" />
    <path
       id="path1349"
       d="m 2318.1314,1018.11 -0.4008,272.3167 v 0"
       style="fill:none;stroke:#000000;stroke-width:0.1;stroke-linecap:butt;stroke-linejoin:miter;stroke-miterlimit:4;stroke-dasharray:none;stroke-opacity:1" />
    <path
       style="fill:#ede9e6;stroke:#ede9e6;stroke-width:1px;stroke-linecap:butt;stroke-linejoin:miter;stroke-opacity:1;fill-opacity:1"
       d="m 1770.1427,1018.4528 271.7112,0.9598 -135.0821,136.0719 -271.7974,-0.1105 v 0 c 44.5934,-45.9906 90.0542,-91.3668 135.1683,-136.9212 z"
       id="path1359" />
    <path
       style="fill:#ede9e6;stroke:#ede9e6;stroke-width:1px;stroke-linecap:butt;stroke-linejoin:miter;stroke-opacity:1;fill-opacity:1"
       d="m 2042.8538,1292.6864 0.5399,-272.6111 136.4918,135.9821 -0.1104,271.7974 c -47.7847,-45.9505 -96.2467,-94.8631 -136.9213,-135.1684 z"
       id="path1361" />
    <path
       style="fill:#ede9e6;stroke:#ede9e6;stroke-width:1px;stroke-linecap:butt;stroke-linejoin:miter;stroke-opacity:1;fill-opacity:1"
       d="m 1362.2249,1154.9217 271.7112,0.9597 -135.0821,136.072 -271.7974,-0.1105 v 0 c 44.5934,-45.9906 90.0542,-91.3668 135.1683,-136.9212 z"
       id="path1375" />
    <path
       style="fill:#ede9e6;stroke:#ede9e6;stroke-width:1px;stroke-linecap:butt;stroke-linejoin:miter;stroke-opacity:1;fill-opacity:1"
       d="m 953.25814,1291.214 271.71116,0.9597 -135.0821,136.072 -271.79736,-0.1105 v 0 c 44.5934,-45.9906 90.0542,-91.3668 135.1683,-136.9212 z"
       id="path1391" />
    <path
       style="fill:#ede9e6;stroke:#ede9e6;stroke-width:1px;stroke-linecap:butt;stroke-linejoin:miter;stroke-opacity:1;fill-opacity:1"
       d="m 678.49226,471.84132 272.41848,1.31458 -135.7894,135.71712 -272.01828,0.11038 c 41.2799,-45.15072 95.78499,-97.21806 135.3892,-137.14208 z"
       id="path1427" />
    <path
       style="fill:none;stroke:#000000;stroke-width:0.1;stroke-linecap:butt;stroke-linejoin:miter;stroke-miterlimit:4;stroke-dasharray:none;stroke-opacity:1"
       d="m 678.89306,199.52461 -0.4008,272.31671 v 0"
       id="path1429" />
    <path
       style="fill:#144d67;fill-opacity:1;fill-rule:evenodd;stroke:none;stroke-width:0;stroke-linejoin:bevel;stroke-miterlimit:4;stroke-dasharray:none;paint-order:stroke fill markers"
       d="m 827.35354,471.90506 c -51.4276,-0.28214 -106.156,-0.39522 -121.3484,-0.46867 l -27.40158,-0.13249 0.1269,-135.86179 0.1613,-135.9175 37.77868,-38.025 c 20.7701,-20.9055 51.2966,-51.684 67.7326,-68.2307 l 30.3419,-30.5462 -0.1841,137.2048 -0.5513,136.7126 47.178,46.81913 c 25.9478,25.75055 54.7674,54.22251 64.0434,63.27102 9.276,9.04852 19.0214,18.5583 21.6564,21.13287 l 5.2245,4.79821 -15.8221,-0.0809 c -8.4758,-0.0433 -57.5098,-0.39334 -108.9375,-0.67548 z"
       id="path1431" />
    <path
       style="fill:#a9b9c4;fill-opacity:1;fill-rule:evenodd;stroke:none;stroke-width:0;stroke-linejoin:bevel;stroke-miterlimit:4;stroke-dasharray:none;paint-order:stroke fill markers"
       d="m 542.10865,550.02197 c 0.055,-32.41451 0.26231,-93.85138 0.30541,-136.56738 l 0.18869,-77.34508 -68.40689,-68.2642 -68.4498,-68.3257 136.663,0.014 136.4377,0.092 -0.1983,135.7873 -0.045,135.89111 -46.7714,46.21712 c -47.974,47.40547 -58.7215,59.09133 -75.4034,76.40381 -4.6891,5.17598 -9.5644,10.27098 -14.4208,15.46889 z"
       id="path1433" />
    <path
       id="path1435"
       d="m 678.89306,199.52461 -0.4008,272.31671 v 0"
       style="fill:none;stroke:#000000;stroke-width:0.1;stroke-linecap:butt;stroke-linejoin:miter;stroke-miterlimit:4;stroke-dasharray:none;stroke-opacity:1" />
    <path
       style="fill:#ede9e6;stroke:#ede9e6;stroke-width:1px;stroke-linecap:butt;stroke-linejoin:miter;stroke-opacity:1;fill-opacity:1"
       d="m -1.99656,612.01835 1.1064,-272.30141 135.9254,135.67242 -0.5973,272.00988 C 86.37714,700.7015 38.75984,652.39631 -1.99656,612.01835 Z"
       id="path1437" />
    <path
       id="path1441"
       d="m 407.66599,475.41538 0.5399,-272.6112 136.4918,135.98221 -0.1104,271.79741 c -47.7847,-45.95053 -96.2467,-94.86319 -136.9213,-135.16842 z"
       style="fill:#ede9e6;stroke:#ede9e6;stroke-width:1px;stroke-linecap:butt;stroke-linejoin:miter;stroke-opacity:1;fill-opacity:1" />
    <path
       style="fill:#ede9e6;stroke:#ede9e6;stroke-width:1px;stroke-linecap:butt;stroke-linejoin:miter;stroke-opacity:1;fill-opacity:1"
       d="m 271.45289,610.92732 272.4185,1.31458 -135.7894,135.71712 -272.01825,0.11038 c 41.2799,-45.15072 95.78495,-97.21806 135.38915,-137.14208 z"
       id="path1443" />
    <path
       style="fill:none;stroke:#000000;stroke-width:0.1;stroke-linecap:butt;stroke-linejoin:miter;stroke-miterlimit:4;stroke-dasharray:none;stroke-opacity:1"
       d="m 271.85369,338.61061 -0.4008,272.31671 v 0"
       id="path1445" />
    <path
       style="fill:#144d67;fill-opacity:1;fill-rule:evenodd;stroke:none;stroke-width:0;stroke-linejoin:bevel;stroke-miterlimit:4;stroke-dasharray:none;paint-order:stroke fill markers"
       d="m 420.31419,610.99106 c -51.4276,-0.28214 -106.156,-0.39522 -121.3484,-0.46867 l -27.4016,-0.13249 0.1269,-135.86178 0.1613,-135.91751 37.7787,-38.02501 c 20.7701,-20.90542 51.2966,-51.68392 67.7326,-68.23072 l 30.3419,-30.5462 -0.1841,137.20479 -0.5513,136.7126 47.178,46.81917 c 25.9478,25.75055 54.7674,54.22251 64.0434,63.27102 9.276,9.04852 19.0214,18.5583 21.6564,21.13287 l 5.2245,4.79821 -15.8221,-0.0809 c -8.4758,-0.0433 -57.5098,-0.39334 -108.9375,-0.67548 z"
       id="path1447" />
    <path
       style="fill:#a9b9c4;fill-opacity:1;fill-rule:evenodd;stroke:none;stroke-width:0;stroke-linejoin:bevel;stroke-miterlimit:4;stroke-dasharray:none;paint-order:stroke fill markers"
       d="m 135.06934,689.10797 c 0.055,-32.41451 0.2623,-93.85138 0.3054,-136.56738 l 0.1887,-77.34506 -68.4069,-68.26425 -68.4498,-68.32566 136.663,0.0143 136.43765,0.0916 -0.1983,135.7873 -0.045,135.8911 -46.7714,46.21712 c -47.97395,47.40547 -58.72145,59.09133 -75.40335,76.40381 -4.6891,5.17598 -9.5644,10.27098 -14.4208,15.46889 z"
       id="path1449" />
    <path
       id="path1451"
       d="m 271.85369,338.61061 -0.4008,272.31671 v 0"
       style="fill:none;stroke:#000000;stroke-width:0.1;stroke-linecap:butt;stroke-linejoin:miter;stroke-miterlimit:4;stroke-dasharray:none;stroke-opacity:1" />
    <path
       style="fill:#ede9e6;stroke:#ede9e6;stroke-width:1px;stroke-linecap:butt;stroke-linejoin:miter;stroke-opacity:1;fill-opacity:1"
       d="m 811.92224,336.97096 1.1064,-272.30141 135.9254,135.67242 -0.5973,272.00988 c -48.0608,-46.69774 -95.6781,-95.00293 -136.4345,-135.38089 z"
       id="path1453" />
    <path
       id="path1455"
       d="m 948.87374,-73.86559 271.71116,0.95977 -135.0821,136.07193 -271.79736,-0.1105 v 0 c 44.5934,-45.9906 90.0542,-91.3668 135.1683,-136.9212 z"
       style="fill:#ede9e6;stroke:#ede9e6;stroke-width:1px;stroke-linecap:butt;stroke-linejoin:miter;stroke-opacity:1;fill-opacity:1" />
    <path
       style="fill:#ede9e6;stroke:#ede9e6;stroke-width:1px;stroke-linecap:butt;stroke-linejoin:miter;stroke-opacity:1;fill-opacity:1"
       d="m 1085.3717,335.87993 272.4185,1.31458 -135.7894,135.71712 -272.01826,0.11038 c 41.2799,-45.15072 95.78496,-97.21806 135.38916,-137.14208 z"
       id="path1459" />
    <path
       style="fill:none;stroke:#000000;stroke-width:0.1;stroke-linecap:butt;stroke-linejoin:miter;stroke-miterlimit:4;stroke-dasharray:none;stroke-opacity:1"
       d="m 1085.7725,63.56322 -0.4008,272.31671 v 0"
       id="path1461" />
    <path
       style="fill:#144d67;fill-opacity:1;fill-rule:evenodd;stroke:none;stroke-width:0;stroke-linejoin:bevel;stroke-miterlimit:4;stroke-dasharray:none;paint-order:stroke fill markers"
       d="m 1234.233,335.94367 c -51.4276,-0.28214 -106.156,-0.39522 -121.3484,-0.46867 l -27.4016,-0.13249 0.1269,-135.86178 0.1613,-135.91751 37.7787,-38.02501 c 20.7701,-20.90545 51.2966,-51.68397 67.7326,-68.23071 l 30.3419,-30.5462 -0.1841,137.20478 -0.5513,136.7126 47.178,46.81917 c 25.9478,25.75055 54.7674,54.22251 64.0434,63.27102 9.276,9.04852 19.0214,18.5583 21.6564,21.13287 l 5.2245,4.79821 -15.8221,-0.0809 c -8.4758,-0.0433 -57.5098,-0.39334 -108.9375,-0.67548 z"
       id="path1463" />
    <path
       style="fill:#a9b9c4;fill-opacity:1;fill-rule:evenodd;stroke:none;stroke-width:0;stroke-linejoin:bevel;stroke-miterlimit:4;stroke-dasharray:none;paint-order:stroke fill markers"
       d="m 948.98814,414.06058 c 0.055,-32.41451 0.2623,-93.85138 0.3054,-136.56738 l 0.1887,-77.34506 -68.4069,-68.26425 -68.4498,-68.32566 136.663,0.0143 136.43766,0.0916 -0.1983,135.7873 -0.045,135.8911 -46.7714,46.21712 c -47.97396,47.40547 -58.72146,59.09133 -75.40336,76.40381 -4.6891,5.17598 -9.5644,10.27098 -14.4208,15.46889 z"
       id="path1465" />
    <path
       id="path1467"
       d="m 1085.7725,63.56322 -0.4008,272.31671 v 0"
       style="fill:none;stroke:#000000;stroke-width:0.1;stroke-linecap:butt;stroke-linejoin:miter;stroke-miterlimit:4;stroke-dasharray:none;stroke-opacity:1" />
    <path
       style="fill:#ede9e6;stroke:#ede9e6;stroke-width:1px;stroke-linecap:butt;stroke-linejoin:miter;stroke-opacity:1;fill-opacity:1"
       d="m 1220.889,200.67868 0.7354,-273.91738 4.5518,-0.383089 3.6404,4.161368 133.2163,132.428541 -1.2585,273.09025 -2.7831,0.64158 c -48.0608,-46.69774 -97.3459,-95.64331 -138.1023,-136.02127 z"
       id="path1485" />
    <path
       style="fill:#ede9e6;stroke:#ede9e6;stroke-width:1px;stroke-linecap:butt;stroke-linejoin:miter;stroke-opacity:1;fill-opacity:1"
       d="m 1498.9224,198.69991 272.4185,1.31458 -135.7894,135.71712 -272.0183,0.11038 c 41.2799,-45.15072 95.785,-97.21806 135.3892,-137.14208 z"
       id="path1491" />
    <path
       style="fill:none;stroke:#000000;stroke-width:0.1;stroke-linecap:butt;stroke-linejoin:miter;stroke-miterlimit:4;stroke-dasharray:none;stroke-opacity:1"
       d="m 1499.3232,-73.616799 -0.4008,272.316709 v 0"
       id="path1493" />
    <path
       style="fill:#144d67;fill-opacity:1;fill-rule:evenodd;stroke:none;stroke-width:0;stroke-linejoin:bevel;stroke-miterlimit:4;stroke-dasharray:none;paint-order:stroke fill markers"
       d="m 1647.7837,198.76365 c -51.4276,-0.28214 -106.156,-0.39522 -121.3484,-0.46867 l -27.4016,-0.13249 0.1269,-135.86178 0.1613,-135.917509 37.7787,-38.025011 c 20.7701,-20.90545 51.2966,-51.68397 67.7326,-68.23071 l 30.3419,-30.5462 -0.1841,137.204781 -0.5513,136.712599 47.178,46.81917 c 25.9478,25.75055 54.7674,54.22251 64.0434,63.27102 9.276,9.04852 19.0214,18.5583 21.6564,21.13287 l 5.2245,4.79821 -15.8221,-0.0809 c -8.4758,-0.0433 -57.5098,-0.39334 -108.9375,-0.67548 z"
       id="path1495" />
    <path
       style="fill:#a9b9c4;fill-opacity:1;fill-rule:evenodd;stroke:none;stroke-width:0;stroke-linejoin:bevel;stroke-miterlimit:4;stroke-dasharray:none;paint-order:stroke fill markers"
       d="m 1362.5388,276.88056 c 0.055,-32.41451 0.2623,-93.85138 0.3054,-136.56738 l 0.1887,-77.34506 -68.4069,-68.26425 -68.4498,-68.325659 136.663,0.0143 136.4377,0.0916 -0.1983,135.787299 -0.045,135.8911 -46.7714,46.21712 c -47.974,47.40547 -58.7215,59.09133 -75.4034,76.40381 -4.6891,5.17598 -9.5644,10.27098 -14.4208,15.46889 z"
       id="path1497" />
    <path
       id="path1499"
       d="m 1499.3232,-73.616799 -0.4008,272.316709 v 0"
       style="fill:none;stroke:#000000;stroke-width:0.1;stroke-linecap:butt;stroke-linejoin:miter;stroke-miterlimit:4;stroke-dasharray:none;stroke-opacity:1" />
    <path
       style="fill:#ede9e6;stroke:#ede9e6;stroke-width:1px;stroke-linecap:butt;stroke-linejoin:miter;stroke-opacity:1;fill-opacity:1"
       d="m 1633.8769,64.39987 1.1064,-272.30141 135.9254,135.67242 -0.5973,272.00988 c -48.0608,-46.69774 -95.6781,-95.00293 -136.4345,-135.38089 z"
       id="path1517" />
    <path
       style="fill:#ede9e6;stroke:#ede9e6;stroke-width:1px;stroke-linecap:butt;stroke-linejoin:miter;stroke-opacity:1;fill-opacity:1"
       d="m 1907.3264,63.30884 272.4185,1.31458 -135.7894,135.71712 -272.0183,0.11038 c 41.2799,-45.15072 95.785,-97.21806 135.3892,-137.14208 z"
       id="path1523" />
    <path
       style="fill:none;stroke:#000000;stroke-width:0.1;stroke-linecap:butt;stroke-linejoin:miter;stroke-miterlimit:4;stroke-dasharray:none;stroke-opacity:1"
       d="m 1907.7272,-209.00787 -0.4008,272.31671 v 0"
       id="path1525" />
    <path
       style="fill:#144d67;fill-opacity:1;fill-rule:evenodd;stroke:none;stroke-width:0;stroke-linejoin:bevel;stroke-miterlimit:4;stroke-dasharray:none;paint-order:stroke fill markers"
       d="m 2056.1877,63.37258 c -51.4276,-0.28214 -106.156,-0.39522 -121.3484,-0.46867 l -27.4016,-0.13249 0.1269,-135.86178 0.1613,-135.91751 37.7787,-38.02501 c 20.7701,-20.90545 51.2966,-51.68397 67.7326,-68.23071 l 30.3419,-30.5462 -0.1841,137.20478 -0.5513,136.7126 47.178,46.81917 c 25.9478,25.75055 54.7674,54.22251 64.0434,63.27102 9.276,9.04852 19.0214,18.5583 21.6564,21.13287 l 5.2245,4.79821 -15.8221,-0.0809 c -8.4758,-0.0433 -57.5098,-0.39334 -108.9375,-0.67548 z"
       id="path1527" />
    <path
       style="fill:#a9b9c4;fill-opacity:1;fill-rule:evenodd;stroke:none;stroke-width:0;stroke-linejoin:bevel;stroke-miterlimit:4;stroke-dasharray:none;paint-order:stroke fill markers"
       d="m 1770.9428,141.48949 c 0.055,-32.41451 0.2623,-93.85138 0.3054,-136.56738 l 0.1887,-77.34506 -68.4069,-68.26425 -68.4498,-68.32566 136.663,0.0143 136.4377,0.0916 -0.1983,135.7873 -0.045,135.8911 -46.7714,46.21712 c -47.974,47.40547 -58.7215,59.09133 -75.4034,76.40381 -4.6891,5.17598 -9.5644,10.27098 -14.4208,15.46889 z"
       id="path1529" />
    <path
       id="path1531"
       d="m 1907.7272,-209.00787 -0.4008,272.31671 v 0"
       style="fill:none;stroke:#000000;stroke-width:0.1;stroke-linecap:butt;stroke-linejoin:miter;stroke-miterlimit:4;stroke-dasharray:none;stroke-opacity:1" />
    <path
       id="path1533"
       d="m -137.72776,203.22473 1.1064,-272.30141 135.9254,135.67242 -0.5973,272.00988 c -48.0608,-46.69774 -95.6781,-95.00293 -136.4345,-135.38089 z"
       style="fill:#ede9e6;stroke:#ede9e6;stroke-width:1px;stroke-linecap:butt;stroke-linejoin:miter;stroke-opacity:1;fill-opacity:1" />
    <path
       style="fill:#ede9e6;stroke:#ede9e6;stroke-width:1px;stroke-linecap:butt;stroke-linejoin:miter;stroke-opacity:1;fill-opacity:1"
       d="m -0.77626,-207.61183 271.7112,0.9598 -135.0821,136.07191 -271.7974,-0.1105 v 0 c 44.5934,-45.9906 90.0542,-91.3668 135.1683,-136.92121 z"
       id="path1535" />
    <path
       id="path1539"
       d="m 135.72174,202.1337 272.4185,1.31458 -135.7894,135.71712 -272.0183,0.11038 c 41.2799,-45.15072 95.785,-97.21806 135.3892,-137.14208 z"
       style="fill:#ede9e6;stroke:#ede9e6;stroke-width:1px;stroke-linecap:butt;stroke-linejoin:miter;stroke-opacity:1;fill-opacity:1" />
    <path
       id="path1541"
       d="m 136.12254,-70.18301 -0.4008,272.31671 v 0"
       style="fill:none;stroke:#000000;stroke-width:0.1;stroke-linecap:butt;stroke-linejoin:miter;stroke-miterlimit:4;stroke-dasharray:none;stroke-opacity:1" />
    <path
       id="path1543"
       d="m 284.58304,202.19744 c -51.4276,-0.28214 -106.156,-0.39522 -121.3484,-0.46867 l -27.4016,-0.13249 0.1269,-135.86178 0.1613,-135.91751 37.7787,-38.02501 c 20.7701,-20.90545 51.2966,-51.68397 67.7326,-68.23071 l 30.3419,-30.5462 -0.1841,137.20478 -0.5513,136.7126 47.178,46.81917 c 25.9478,25.75055 54.7674,54.22251 64.0434,63.27102 9.276,9.04852 19.0214,18.5583 21.6564,21.13287 l 5.2245,4.79821 -15.8221,-0.0809 c -8.4758,-0.0433 -57.5098,-0.39334 -108.9375,-0.67548 z"
       style="fill:#a9b9c4;fill-opacity:1;fill-rule:evenodd;stroke:none;stroke-width:0;stroke-linejoin:bevel;stroke-miterlimit:4;stroke-dasharray:none;paint-order:stroke fill markers" />
    <path
       id="path1545"
       d="m -0.66186,280.31435 c 0.055,-32.41451 0.2623,-93.85138 0.3054,-136.56738 l 0.1887,-77.34506 -68.4069,-68.26425 -68.4498,-68.32566 136.663,0.0143 136.4377,0.0916 -0.1983,135.7873 -0.045,135.8911 -46.7714,46.21712 c -47.974,47.40547 -58.7215,59.09133 -75.4034,76.40381 -4.6891,5.17598 -9.5644,10.27098 -14.4208,15.46889 z"
       style="fill:#144d67;fill-opacity:1;fill-rule:evenodd;stroke:none;stroke-width:0;stroke-linejoin:bevel;stroke-miterlimit:4;stroke-dasharray:none;paint-order:stroke fill markers" />
    <path
       style="fill:none;stroke:#000000;stroke-width:0.1;stroke-linecap:butt;stroke-linejoin:miter;stroke-miterlimit:4;stroke-dasharray:none;stroke-opacity:1"
       d="m 136.12254,-70.18301 -0.4008,272.31671 v 0"
       id="path1547" />
    <path
       id="path1581"
       d="m 270.86804,65.316477 1.1064,-272.301407 135.9254,135.672417 -0.5973,272.009883 c -48.0608,-46.69774 -95.6781,-95.00293 -136.4345,-135.380893 z"
       style="fill:#ede9e6;stroke:#ede9e6;stroke-width:1px;stroke-linecap:butt;stroke-linejoin:miter;stroke-opacity:1;fill-opacity:1" />
    <path
       style="fill:#ede9e6;stroke:#ede9e6;stroke-width:1px;stroke-linecap:butt;stroke-linejoin:miter;stroke-opacity:1;fill-opacity:1"
       d="m 407.81954,-345.52007 271.7112,0.95977 -135.0821,136.07193 -271.7974,-0.1105 v 0 c 44.5934,-45.9906 90.0542,-91.3668 135.1683,-136.9212 z"
       id="path1583" />
    <path
       style="fill:#ede9e6;fill-opacity:1;stroke:#ede9e6;stroke-width:1px;stroke-linecap:butt;stroke-linejoin:miter;stroke-opacity:1"
       d="m 680.53064,-71.286493 0.5399,-272.611167 136.4918,135.98218 -2.8174,270.63819 c -47.7847,-45.95053 -93.5397,-93.703973 -134.2143,-134.009203 z"
       id="path1585" />
    <path
       id="path1587"
       d="m 544.31754,64.225447 272.4185,1.31458 -135.7894,135.717123 -272.0183,0.11038 c 41.2799,-45.15072 95.785,-97.21806 135.3892,-137.142083 z"
       style="fill:none;stroke:#000000;stroke-width:1px;stroke-linecap:butt;stroke-linejoin:miter;stroke-opacity:1" />
    <path
       id="path1589"
       d="m 544.71834,-208.09126 -0.4008,272.316707 v 0"
       style="fill:none;stroke:#000000;stroke-width:0.1;stroke-linecap:butt;stroke-linejoin:miter;stroke-miterlimit:4;stroke-dasharray:none;stroke-opacity:1" />
    <path
       id="path1591"
       d="m 693.17884,64.289187 c -51.4276,-0.28214 -106.156,-0.39522 -121.3484,-0.46867 l -27.4016,-0.13249 0.1269,-135.86178 0.1613,-135.917507 37.7787,-38.02501 c 20.7701,-20.90545 51.2966,-51.68397 67.7326,-68.23071 l 30.3419,-30.5462 -0.1841,137.20478 -0.5513,136.712597 47.178,46.81917 c 25.9478,25.75055 54.41385,55.194782 63.68985,64.243292 9.276,9.04852 18.66936,18.240503 21.56801,20.514151 l 4.46534,4.939217 -14.621,-0.57546 c -8.46935,-0.333341 -57.5098,-0.39334 -108.9375,-0.67548 z"
       style="fill:#a9b9c4;fill-opacity:1;fill-rule:evenodd;stroke:none;stroke-width:0;stroke-linejoin:bevel;stroke-miterlimit:4;stroke-dasharray:none;paint-order:stroke fill markers" />
    <path
       id="path1593"
       d="m 407.93394,142.4061 c 0.055,-32.41451 0.2623,-93.851383 0.3054,-136.567383 l 0.1887,-77.34506 -68.4069,-68.264247 -68.4498,-68.32566 136.663,0.0143 136.4377,0.0916 -0.1983,135.787297 -0.045,135.8911 -46.7714,46.217123 c -47.974,47.40547 -58.7215,59.09133 -75.4034,76.40381 -4.6891,5.17598 -9.5644,10.27098 -14.4208,15.46889 z"
       style="fill:#144d67;fill-opacity:1;fill-rule:evenodd;stroke:none;stroke-width:0;stroke-linejoin:bevel;stroke-miterlimit:4;stroke-dasharray:none;paint-order:stroke fill markers" />
    <path
       style="fill:none;stroke:#000000;stroke-width:0.1;stroke-linecap:butt;stroke-linejoin:miter;stroke-miterlimit:4;stroke-dasharray:none;stroke-opacity:1"
       d="m 544.71834,-208.09126 -0.4008,272.316707 v 0"
       id="path1595" />
    <path
       style="fill:#ede9e6;stroke:#ede9e6;stroke-width:1px;stroke-linecap:butt;stroke-linejoin:miter;stroke-opacity:1;fill-opacity:1"
       d="m 544.31754,64.225447 272.4185,1.31458 -135.7894,135.717123 -272.0183,0.11038 c 41.2799,-45.15072 95.785,-97.21806 135.3892,-137.142083 z"
       id="path1603" />
    <path
       style="fill:none;stroke:#000000;stroke-width:0.1;stroke-linecap:butt;stroke-linejoin:miter;stroke-miterlimit:4;stroke-dasharray:none;stroke-opacity:1"
       d="m 544.71834,-208.09126 -0.4008,272.316707 v 0"
       id="path1605" />
    <path
       id="path1611"
       d="m 544.71834,-208.09126 -0.4008,272.316707 v 0"
       style="fill:none;stroke:#000000;stroke-width:0.1;stroke-linecap:butt;stroke-linejoin:miter;stroke-miterlimit:4;stroke-dasharray:none;stroke-opacity:1" />
    <path
       style="fill:#144d67;fill-opacity:1;fill-rule:evenodd;stroke:none;stroke-width:0;stroke-linejoin:bevel;stroke-miterlimit:4;stroke-dasharray:none;paint-order:stroke fill markers"
       d="m 814.84574,3.35094 c 0.055,-32.41451 0.2623,-93.85138 0.3054,-136.56738 l 0.1887,-77.34506 -68.4069,-68.26425 -68.4498,-68.32566 136.663,0.0143 136.43766,0.0916 -0.1983,135.7873 -0.045,135.8911 -46.77136,46.21712 c -47.974,47.40547 -58.7215,59.09133 -75.4034,76.40381 -4.6891,5.17598 -9.5644,10.27098 -14.4208,15.46889 z"
       id="path1613" />
    <path
       id="path1639"
       d="m -275.63526,1155.9929 1.1064,-272.30143 135.9254,135.67243 -0.5973,272.0099 c -48.0608,-46.6978 -95.6781,-95.003 -136.4345,-135.3809 z"
       style="fill:#ede9e6;stroke:#ede9e6;stroke-width:1px;stroke-linecap:butt;stroke-linejoin:miter;stroke-opacity:1;fill-opacity:1" />
    <path
       style="fill:none;stroke:#000000;stroke-width:1px;stroke-linecap:butt;stroke-linejoin:miter;stroke-opacity:1"
       d="m -138.68376,745.15633 271.7112,0.95977 -135.0821,136.07193 -271.7974,-0.1105 v 0 c 44.5934,-45.9906 90.0542,-91.3668 135.1683,-136.9212 z"
       id="path1641" />
    <path
       id="path1645"
       d="m -2.18576,1154.9019 272.4185,1.3145 -135.7894,135.7172 -272.0183,0.1103 c 41.2799,-45.1507 95.785,-97.218 135.3892,-137.142 z"
       style="fill:#ede9e6;stroke:#ede9e6;stroke-width:1px;stroke-linecap:butt;stroke-linejoin:miter;stroke-opacity:1;fill-opacity:1" />
    <path
       id="path1647"
       d="m -1.78496,882.58514 -0.4008,272.31676 v 0"
       style="fill:none;stroke:#000000;stroke-width:0.1;stroke-linecap:butt;stroke-linejoin:miter;stroke-miterlimit:4;stroke-dasharray:none;stroke-opacity:1" />
    <path
       id="path1649"
       d="m 146.67554,1154.9656 c -51.4276,-0.2821 -106.156,-0.3952 -121.3484,-0.4687 l -27.4016,-0.1325 0.1269,-135.8618 0.1613,-135.91746 37.7787,-38.02501 c 20.7701,-20.90545 51.2966,-51.68397 67.7326,-68.23071 l 30.3419,-30.5462 -0.1841,137.20478 -0.5513,136.7126 47.178,46.8192 c 25.9478,25.7505 54.7674,54.2225 64.0434,63.271 9.276,9.0485 19.0214,18.5583 21.6564,21.1329 l 5.2245,4.7982 -15.8221,-0.081 c -8.4758,-0.043 -57.5098,-0.3934 -108.9375,-0.6755 z"
       style="fill:#a9b9c4;fill-opacity:1;fill-rule:evenodd;stroke:none;stroke-width:0;stroke-linejoin:bevel;stroke-miterlimit:4;stroke-dasharray:none;paint-order:stroke fill markers" />
    <path
       id="path1651"
       d="m -138.56936,1233.0825 c 0.055,-32.4145 0.2623,-93.8514 0.3054,-136.5674 l 0.1887,-77.345 -68.4069,-68.26429 -68.4498,-68.32566 136.663,0.0143 136.4377,0.0916 -0.1983,135.78725 -0.045,135.8912 -46.7714,46.2171 c -47.974,47.4054 -58.7215,59.0913 -75.4034,76.4038 -4.6891,5.176 -9.5644,10.271 -14.4208,15.4689 z"
       style="fill:#144d67;fill-opacity:1;fill-rule:evenodd;stroke:none;stroke-width:0;stroke-linejoin:bevel;stroke-miterlimit:4;stroke-dasharray:none;paint-order:stroke fill markers" />
    <path
       style="fill:none;stroke:#000000;stroke-width:0.1;stroke-linecap:butt;stroke-linejoin:miter;stroke-miterlimit:4;stroke-dasharray:none;stroke-opacity:1"
       d="m -1.78496,882.58514 -0.4008,272.31676 v 0"
       id="path1653" />
    <path
       style="fill:none;stroke:#000000;stroke-width:0.1;stroke-linecap:butt;stroke-linejoin:miter;stroke-miterlimit:4;stroke-dasharray:none;stroke-opacity:1"
       d="m -1.78496,882.58514 -0.4008,272.31676 v 0"
       id="path1655" />
    <path
       style="fill:#ede9e6;stroke:#ede9e6;stroke-width:1px;stroke-linecap:butt;stroke-linejoin:miter;stroke-opacity:1;fill-opacity:1"
       d="m -412.13326,746.24736 1.1064,-272.30141 135.9254,135.67242 -0.5973,272.00988 c -48.0608,-46.69774 -95.6781,-95.00293 -136.4345,-135.38089 z"
       id="path1657" />
    <path
       id="path1659"
       d="m -275.18176,335.41081 271.7112,0.95977 -135.0821,136.07193 -271.7974,-0.1105 v 0 c 44.5934,-45.9906 90.0542,-91.3668 135.1683,-136.9212 z"
       style="fill:#ede9e6;stroke:#ede9e6;stroke-width:1px;stroke-linecap:butt;stroke-linejoin:miter;stroke-opacity:1;fill-opacity:1" />
    <path
       style="fill:#ede9e6;stroke:#ede9e6;stroke-width:1px;stroke-linecap:butt;stroke-linejoin:miter;stroke-opacity:1;fill-opacity:1"
       d="m -138.68376,745.15633 272.4185,1.31458 -135.7894,135.71712 -272.0183,0.11038 c 41.2799,-45.15072 95.785,-97.21806 135.3892,-137.14208 z"
       id="path1663" />
    <path
       style="fill:none;stroke:#000000;stroke-width:0.1;stroke-linecap:butt;stroke-linejoin:miter;stroke-miterlimit:4;stroke-dasharray:none;stroke-opacity:1"
       d="m -138.28296,472.83962 -0.4008,272.31671 v 0"
       id="path1665" />
    <path
       style="fill:#144d67;fill-opacity:1;fill-rule:evenodd;stroke:none;stroke-width:0;stroke-linejoin:bevel;stroke-miterlimit:4;stroke-dasharray:none;paint-order:stroke fill markers"
       d="m 10.17754,745.22007 c -51.4276,-0.28214 -106.156,-0.39522 -121.3484,-0.46867 l -27.4016,-0.13249 0.1269,-135.86178 0.1613,-135.91751 37.7787,-38.02501 c 20.7701,-20.90545 51.2966,-51.68397 67.7326,-68.23071 l 30.3419,-30.5462 -0.1841,137.20478 -0.5513,136.7126 47.178,46.81917 c 25.9478,25.75055 54.7674,54.22251 64.0434,63.27102 9.276,9.04852 19.0214,18.5583 21.6564,21.13287 l 5.2245,4.79821 -15.8221,-0.0809 c -8.4758,-0.0433 -57.5098,-0.39334 -108.9375,-0.67548 z"
       id="path1667" />
    <path
       style="fill:#a9b9c4;fill-opacity:1;fill-rule:evenodd;stroke:none;stroke-width:0;stroke-linejoin:bevel;stroke-miterlimit:4;stroke-dasharray:none;paint-order:stroke fill markers"
       d="m -275.06736,823.33698 c 0.055,-32.41451 0.2623,-93.85138 0.3054,-136.56738 l 0.1887,-77.34506 -68.4069,-68.26425 -68.4498,-68.32566 136.663,0.0143 136.4377,0.0916 -0.1983,135.7873 -0.045,135.8911 -46.7714,46.21712 c -47.974,47.40547 -58.7215,59.09133 -75.4034,76.40381 -4.6891,5.17598 -9.5644,10.27098 -14.4208,15.46889 z"
       id="path1669" />
    <path
       id="path1671"
       d="m -138.28296,472.83962 -0.4008,272.31671 v 0"
       style="fill:none;stroke:#000000;stroke-width:0.1;stroke-linecap:butt;stroke-linejoin:miter;stroke-miterlimit:4;stroke-dasharray:none;stroke-opacity:1" />
    <path
       id="path1675"
       d="m 2453.7576,335.0639 271.7112,0.95977 -135.0821,136.07193 -271.7974,-0.1105 v 0 c 44.5934,-45.9906 90.0542,-91.3668 135.1683,-136.9212 z"
       style="fill:#ede9e6;stroke:#ede9e6;stroke-width:1px;stroke-linecap:butt;stroke-linejoin:miter;stroke-opacity:1;fill-opacity:1" />
    <path
       id="path1677"
       d="m 2726.4687,609.29748 0.5399,-272.61117 136.4918,135.98218 -0.1104,271.79741 c -47.7847,-45.95053 -96.2467,-94.86319 -136.9213,-135.16842 z"
       style="fill:#ede9e6;stroke:#ede9e6;stroke-width:1px;stroke-linecap:butt;stroke-linejoin:miter;stroke-opacity:1;fill-opacity:1" />
    <path
       style="fill:#ede9e6;stroke:#000000;stroke-width:1px;stroke-linecap:butt;stroke-linejoin:miter;stroke-opacity:1;fill-opacity:1"
       d="m 2590.2556,744.80942 272.4185,1.31458 -135.7894,135.71712 -272.0183,0.11038 c 41.2799,-45.15072 95.785,-97.21806 135.3892,-137.14208 z"
       id="path1679" />
    <path
       style="fill:none;stroke:#000000;stroke-width:0.1;stroke-linecap:butt;stroke-linejoin:miter;stroke-miterlimit:4;stroke-dasharray:none;stroke-opacity:1"
       d="m 2590.6564,472.49271 -0.4008,272.31671 v 0"
       id="path1681" />
    <path
       style="fill:#144d67;fill-opacity:1;fill-rule:evenodd;stroke:none;stroke-width:0;stroke-linejoin:bevel;stroke-miterlimit:4;stroke-dasharray:none;paint-order:stroke fill markers"
       d="m 2739.1169,744.87316 c -51.4276,-0.28214 -106.156,-0.39522 -121.3484,-0.46867 l -27.4016,-0.13249 0.1269,-135.86178 0.1613,-135.91751 37.7787,-38.02501 c 20.7701,-20.90545 51.2966,-51.68397 67.7326,-68.23071 l 30.3419,-30.5462 -0.1841,137.20478 -0.5513,136.7126 47.178,46.81917 c 25.9478,25.75055 54.7674,54.22251 64.0434,63.27102 9.276,9.04852 19.0214,18.5583 21.6564,21.13287 l 5.2245,4.79821 -15.8221,-0.0809 c -8.4758,-0.0433 -57.5098,-0.39334 -108.9375,-0.67548 z"
       id="path1683" />
    <path
       style="fill:#a9b9c4;fill-opacity:1;fill-rule:evenodd;stroke:none;stroke-width:0;stroke-linejoin:bevel;stroke-miterlimit:4;stroke-dasharray:none;paint-order:stroke fill markers"
       d="m 2453.872,822.99007 c 0.055,-32.41451 0.2623,-93.85138 0.3054,-136.56738 l 0.1887,-77.34506 -68.4069,-68.26425 -68.4498,-68.32566 136.663,0.0143 136.4377,0.0916 -0.1983,135.7873 -0.045,135.8911 -46.7714,46.21712 c -47.974,47.40547 -58.7215,59.09133 -75.4034,76.40381 -4.6891,5.17598 -9.5644,10.27098 -14.4208,15.46889 z"
       id="path1685" />
    <path
       id="path1687"
       d="m 2590.6564,472.49271 -0.4008,272.31671 v 0"
       style="fill:none;stroke:#000000;stroke-width:0.1;stroke-linecap:butt;stroke-linejoin:miter;stroke-miterlimit:4;stroke-dasharray:none;stroke-opacity:1" />
    <path
       style="fill:#ede9e6;stroke:#ede9e6;stroke-width:1px;stroke-linecap:butt;stroke-linejoin:miter;stroke-opacity:1;fill-opacity:1"
       d="m 2590.0265,200.16684 0.5399,-272.611168 136.4918,135.982181 -0.1104,271.797407 c -47.7847,-45.95053 -96.2467,-94.86319 -136.9213,-135.16842 z"
       id="path1693" />
    <path
       id="path1697"
       d="m 2454.91,63.051383 -0.4008,272.316707 v 0"
       style="fill:none;stroke:#000000;stroke-width:0.1;stroke-linecap:butt;stroke-linejoin:miter;stroke-miterlimit:4;stroke-dasharray:none;stroke-opacity:1" />
    <path
       id="path1699"
       d="m 2603.3705,335.43183 c -51.4276,-0.28214 -106.156,-0.39522 -121.3484,-0.46867 l -27.4016,-0.13249 0.1269,-135.86178 0.1613,-135.917507 37.7787,-38.02501 c 20.7701,-20.90545 51.2966,-51.68397 67.7326,-68.23071 l 30.3419,-30.546201 -0.1841,137.204781 -0.5513,136.712597 47.178,46.81917 c 25.9478,25.75055 54.7674,54.22251 64.0434,63.27102 9.276,9.04852 19.0214,18.5583 21.6564,21.13287 l 5.2245,4.79821 -15.8221,-0.0809 c -8.4758,-0.0433 -57.5098,-0.39334 -108.9375,-0.67548 z"
       style="fill:#a9b9c4;fill-opacity:1;fill-rule:evenodd;stroke:none;stroke-width:0;stroke-linejoin:bevel;stroke-miterlimit:4;stroke-dasharray:none;paint-order:stroke fill markers" />
    <path
       id="path1701"
       d="m 2318.1256,413.54874 c 0.055,-32.41451 0.2623,-93.85138 0.3054,-136.56738 l 0.1887,-77.34506 -68.4069,-68.26425 -68.4498,-68.325657 136.663,0.0143 136.4377,0.0916 -0.1983,135.787297 -0.045,135.8911 -46.7714,46.21712 c -47.974,47.40547 -58.7215,59.09133 -75.4034,76.40381 -4.6891,5.17598 -9.5644,10.27098 -14.4208,15.46889 z"
       style="fill:#144d67;fill-opacity:1;fill-rule:evenodd;stroke:none;stroke-width:0;stroke-linejoin:bevel;stroke-miterlimit:4;stroke-dasharray:none;paint-order:stroke fill markers" />
    <path
       style="fill:none;stroke:#000000;stroke-width:0.1;stroke-linecap:butt;stroke-linejoin:miter;stroke-miterlimit:4;stroke-dasharray:none;stroke-opacity:1"
       d="m 2454.91,63.051383 -0.4008,272.316707 v 0"
       id="path1703" />
    <path
       style="fill:none;stroke:#000000;stroke-width:0.1;stroke-linecap:butt;stroke-linejoin:miter;stroke-miterlimit:4;stroke-dasharray:none;stroke-opacity:1"
       d="m 2454.91,63.051383 -0.4008,272.316707 v 0"
       id="path1705" />
    <path
       style="fill:#ede9e6;stroke:#ede9e6;stroke-width:1px;stroke-linecap:butt;stroke-linejoin:miter;stroke-opacity:1;fill-opacity:1"
       d="m 2179.8052,881.84984 271.7112,0.95977 -135.0821,136.07189 -271.7974,-0.1105 v 0 c 44.5934,-45.99056 90.0542,-91.36676 135.1683,-136.92116 z"
       id="path1709" />
    <path
       style="fill:#ede9e6;fill-opacity:1;stroke:#ede9e6;stroke-width:1px;stroke-linecap:butt;stroke-linejoin:miter;stroke-opacity:1"
       d="m 2451.8205,1156.3941 1.3796,-274.20215 137.664,136.63115 -2.1223,272.7394 c -47.7847,-45.9505 -96.2467,-94.8632 -136.9213,-135.1684 z"
       id="path1711" />
    <path
       id="path1713"
       d="m 2316.3032,1291.5954 272.4185,1.3145 -135.7894,135.7172 -272.0183,0.1103 c 41.2799,-45.1507 95.785,-97.218 135.3892,-137.142 z"
       style="fill:#ede9e6;stroke:#ede9e6;stroke-width:1px;stroke-linecap:butt;stroke-linejoin:miter;stroke-opacity:1;fill-opacity:1" />
    <path
       id="path1715"
       d="m 2316.704,1019.2787 -0.4008,272.3167 v 0"
       style="fill:none;stroke:#000000;stroke-width:0.1;stroke-linecap:butt;stroke-linejoin:miter;stroke-miterlimit:4;stroke-dasharray:none;stroke-opacity:1" />
    <path
       id="path1717"
       d="m 2465.1645,1291.6591 c -51.4276,-0.2821 -106.156,-0.3952 -121.3484,-0.4687 l -27.4016,-0.1325 0.1269,-135.8617 0.1613,-135.9175 37.7787,-38.02506 c 20.7701,-20.90545 51.2966,-51.68397 67.7326,-68.23071 l 30.3419,-30.5462 -0.1841,137.20477 -0.5513,136.7126 47.178,46.8192 c 25.9478,25.7505 54.7674,54.2225 64.0434,63.271 9.276,9.0485 19.0214,18.5583 21.6564,21.1329 l 5.2245,4.7982 -15.8221,-0.081 c -8.4758,-0.043 -57.5098,-0.3934 -108.9375,-0.6755 z"
       style="fill:#a9b9c4;fill-opacity:1;fill-rule:evenodd;stroke:none;stroke-width:0;stroke-linejoin:bevel;stroke-miterlimit:4;stroke-dasharray:none;paint-order:stroke fill markers" />
    <path
       id="path1719"
       d="m 2179.9196,1369.776 c 0.055,-32.4145 0.2623,-93.8514 0.3054,-136.5674 l 0.1887,-77.345 -68.4069,-68.2643 -68.4498,-68.3256 136.663,0.014 136.4377,0.092 -0.1983,135.7873 -0.045,135.8911 -46.7714,46.2171 c -47.974,47.4055 -58.7215,59.0913 -75.4034,76.4038 -4.6891,5.176 -9.5644,10.271 -14.4208,15.4689 z"
       style="fill:#144d67;fill-opacity:1;fill-rule:evenodd;stroke:none;stroke-width:0;stroke-linejoin:bevel;stroke-miterlimit:4;stroke-dasharray:none;paint-order:stroke fill markers" />
    <path
       style="fill:none;stroke:#000000;stroke-width:0.1;stroke-linecap:butt;stroke-linejoin:miter;stroke-miterlimit:4;stroke-dasharray:none;stroke-opacity:1"
       d="m 2316.704,1019.2787 -0.4008,272.3167 v 0"
       id="path1721" />
    <path
       style="fill:none;stroke:#000000;stroke-width:0.1;stroke-linecap:butt;stroke-linejoin:miter;stroke-miterlimit:4;stroke-dasharray:none;stroke-opacity:1"
       d="m 2316.704,1019.2787 -0.4008,272.3167 v 0"
       id="path1723" />
    <path
       id="path1747"
       d="m 2056.1978,1427.9514 c -51.4276,-0.2821 -106.156,-0.3952 -121.3484,-0.4687 l -27.4016,-0.1325 0.1269,-135.8617 0.1613,-135.9176 37.7787,-38.025 c 20.7701,-20.9054 51.2966,-51.6839 67.7326,-68.2307 l 30.3419,-30.5462 -0.1841,137.2048 -0.5513,136.7126 47.178,46.8192 c 25.9478,25.7505 54.7674,54.2225 64.0434,63.271 9.276,9.0485 19.0214,18.5583 21.6564,21.1329 l 5.2245,4.7982 -15.8221,-0.081 c -8.4758,-0.043 -57.5098,-0.3934 -108.9375,-0.6755 z"
       style="fill:#a9b9c4;fill-opacity:1;fill-rule:evenodd;stroke:none;stroke-width:0;stroke-linejoin:bevel;stroke-miterlimit:4;stroke-dasharray:none;paint-order:stroke fill markers" />
    <path
       style="fill:#ede9e6;fill-opacity:1;stroke:#ede9e6;stroke-width:1px;stroke-linecap:butt;stroke-linejoin:miter;stroke-opacity:1"
       d="m 2042.8437,-71.89241 2.8244,-273.69542 135.9254,135.6725 -0.5973,272.009802 c -48.0608,-46.6977 -97.3961,-93.608882 -138.1525,-133.986882 z"
       id="path1765" />
    <path
       style="fill:#ede9e6;stroke:#ede9e6;stroke-width:1px;stroke-linecap:butt;stroke-linejoin:miter;stroke-opacity:1;fill-opacity:1"
       d="m 2318.0112,-74.377428 272.4185,1.3146 -135.7894,135.7171 -272.0183,0.1104 c 41.2799,-45.1507 95.785,-97.2181 135.3892,-137.1421 z"
       id="path1771" />
    <path
       style="fill:none;stroke:#000000;stroke-width:0.1;stroke-linecap:butt;stroke-linejoin:miter;stroke-miterlimit:4;stroke-dasharray:none;stroke-opacity:1"
       d="m 2318.412,-346.69413 -0.4008,272.316702 v 0"
       id="path1773" />
    <path
       style="fill:#a9b9c4;fill-opacity:1;fill-rule:evenodd;stroke:none;stroke-width:0;stroke-linejoin:bevel;stroke-miterlimit:4;stroke-dasharray:none;paint-order:stroke fill markers"
       d="m 2181.6276,3.803272 c 0.055,-32.4145 0.2623,-93.8514 0.3054,-136.567402 l 0.1887,-77.3451 -68.4069,-68.2642 -68.4498,-68.3257 136.663,0.014 136.4377,0.092 -0.1983,135.7873 -0.045,135.891102 -46.7714,46.2171 c -47.974,47.4055 -58.7215,59.0914 -75.4034,76.4038 -4.6891,5.176 -9.5644,10.271 -14.4208,15.4689 z"
       id="path1777" />
    <path
       id="path1779"
       d="m 2318.412,-346.69413 -0.4008,272.316702 v 0"
       style="fill:none;stroke:#000000;stroke-width:0.1;stroke-linecap:butt;stroke-linejoin:miter;stroke-miterlimit:4;stroke-dasharray:none;stroke-opacity:1" />
    <path
       style="fill:#ede9e6;stroke:#ede9e6;stroke-width:1px;stroke-linecap:butt;stroke-linejoin:miter;stroke-opacity:1;fill-opacity:1"
       d="m 2862.2709,1019.3537 0.5399,-272.61118 136.4918,135.98218 -0.1104,271.7974 c -47.7847,-45.9505 -96.2467,-94.8632 -136.9213,-135.1684 z"
       id="path1785" />
    <path
       id="path1787"
       d="m 2726.7536,1154.5549 272.4185,1.3146 -135.7894,135.7171 -272.0183,0.1104 c 41.2799,-45.1507 95.785,-97.218 135.3892,-137.1421 z"
       style="fill:#ede9e6;stroke:#ede9e6;stroke-width:1px;stroke-linecap:butt;stroke-linejoin:miter;stroke-opacity:1;fill-opacity:1" />
    <path
       id="path1789"
       d="m 2727.1544,882.23823 -0.4008,272.31667 v 0"
       style="fill:none;stroke:#000000;stroke-width:0.1;stroke-linecap:butt;stroke-linejoin:miter;stroke-miterlimit:4;stroke-dasharray:none;stroke-opacity:1" />
    <path
       id="path1791"
       d="m 2875.6149,1154.6187 c -51.4276,-0.2822 -106.156,-0.3952 -121.3484,-0.4687 l -27.4016,-0.1325 0.1269,-135.8618 0.1613,-135.91747 37.7787,-38.02501 c 20.7701,-20.90545 51.2966,-51.68397 67.7326,-68.23071 l 30.3419,-30.5462 -0.1841,137.20478 -0.5513,136.71261 47.178,46.8192 c 25.9478,25.7505 54.7674,54.2225 64.0434,63.271 9.276,9.0485 19.0214,18.5583 21.6564,21.1328 l 5.2245,4.7983 -15.8221,-0.081 c -8.4758,-0.043 -57.5098,-0.3934 -108.9375,-0.6755 z"
       style="fill:#a9b9c4;fill-opacity:1;fill-rule:evenodd;stroke:none;stroke-width:0;stroke-linejoin:bevel;stroke-miterlimit:4;stroke-dasharray:none;paint-order:stroke fill markers" />
    <path
       id="path1793"
       d="m 2590.37,1232.7356 c 0.055,-32.4145 0.2623,-93.8514 0.3054,-136.5674 l 0.1887,-77.3451 -68.4069,-68.2642 -68.4498,-68.32566 136.663,0.0143 136.4377,0.0916 -0.1983,135.78726 -0.045,135.8911 -46.7714,46.2172 c -47.974,47.4054 -58.7215,59.0913 -75.4034,76.4038 -4.6891,5.1759 -9.5644,10.2709 -14.4208,15.4689 z"
       style="fill:#144d67;fill-opacity:1;fill-rule:evenodd;stroke:none;stroke-width:0;stroke-linejoin:bevel;stroke-miterlimit:4;stroke-dasharray:none;paint-order:stroke fill markers" />
    <path
       style="fill:none;stroke:#000000;stroke-width:0.1;stroke-linecap:butt;stroke-linejoin:miter;stroke-miterlimit:4;stroke-dasharray:none;stroke-opacity:1"
       d="m 2727.1544,882.23823 -0.4008,272.31667 v 0"
       id="path1795" />
    <path
       style="fill:none;stroke:#000000;stroke-width:0.1;stroke-linecap:butt;stroke-linejoin:miter;stroke-miterlimit:4;stroke-dasharray:none;stroke-opacity:1"
       d="m 2727.1544,882.23823 -0.4008,272.31667 v 0"
       id="path1797" />
    <path
       id="path1799"
       d="m 2726.5641,277.45029 c 0.055,-32.41451 0.2623,-93.85138 0.3054,-136.56738 l 0.1887,-77.345057 -68.4069,-68.26425 -68.4498,-68.325657 136.663,0.0143 136.4377,0.0916 -0.1983,135.787297 -0.045,135.891097 -46.7714,46.21712 c -47.974,47.40547 -58.7215,59.09133 -75.4034,76.40381 -4.6891,5.17598 -9.5644,10.27098 -14.4208,15.46889 z"
       style="fill:#144d67;fill-opacity:1;fill-rule:evenodd;stroke:none;stroke-width:0;stroke-linejoin:bevel;stroke-miterlimit:4;stroke-dasharray:none;paint-order:stroke fill markers" />
  </g>
</svg>
